<svg xmlns="http://www.w3.org/2000/svg" viewBox="0 0 93 71"><defs><style>.a,.b,.c,.e,.f{fill:none;}.b{stroke:#f05858;}.b,.c,.d,.e,.f{stroke-miterlimit:10;}.c,.d{stroke:#191314;}.d{fill:#fff;}.e,.f{stroke:#000;}.f{stroke-width:0.75px;}</style></defs><title>Logo and Icons</title><line class="a" x1="62.94" y1="57.8" x2="62.34" y2="56.89"/><path class="b" d="M62.77,54l2.13,3.19h2.91c.12.37.2.65.29.93a7.92,7.92,0,0,0,7.19,5.54A7.52,7.52,0,0,0,82.77,59c.6-1.65,1.43-2,3-1.85,1.84.11,2.81-1,2.82-2.84,0-2.44,0-4.88,0-7.32a9.84,9.84,0,0,0-1.32-5.08c-2.47-4.41-4.94-8.82-7.37-13.25a4.15,4.15,0,0,0-4-2.34c-3.31,0-6.62,0-10.09,0V11.72c0-2.3-.94-3.26-3.21-3.26H15.29c-2.24,0-3.17.95-3.18,3.2V21H10.92c-1.68,0-3.37,0-5.06,0M75.65,60.8a5,5,0,1,1,5-5A5,5,0,0,1,75.65,60.8Zm1.67-30.73M65.86,54.29v-25c.25,0,.48-.05.72-.05,3.1,0,6.2,0,9.3,0m8.87,14.25"/><path class="b" d="M5.86,49.79c1.69.05,3.38,0,5.06,0h1.19V54c0,2.24.94,3.19,3.18,3.19H24l2.23-3H15.07V49.82H16c2.38,0,4.76,0,7.14,0"/><path class="b" d="M24.6,36.11A1.12,1.12,0,0,0,23.49,35H10.61a1.12,1.12,0,0,0-1.12,1.12"/><path class="c" d="M52.92,23.09h0a10.72,10.72,0,0,0-10.72.26h0a10.73,10.73,0,0,0-5.12,9.42h0a10.71,10.71,0,0,0,5.59,9.15h0a10.72,10.72,0,0,0,10.72-.27h0a10.73,10.73,0,0,0,5.12-9.42h0A10.7,10.7,0,0,0,52.92,23.09Z"/><line class="d" x1="43.41" y1="42.28" x2="35.7" y2="56.44"/><path class="e" d="M42.15,31.56a7,7,0,0,1,1.11-.93,8,8,0,0,1,3.47-1.37c.35-.05.71-.07,1-.09a8.22,8.22,0,0,1,5.91,2.32"/><path class="e" d="M43.87,33.27A5.58,5.58,0,0,1,45.81,32a6.17,6.17,0,0,1,2.35-.39,5.5,5.5,0,0,1,3.75,1.63"/><path class="e" d="M45.59,35a3.28,3.28,0,0,1,4.62,0"/><path class="f" d="M47.93,38.77a1.34,1.34,0,1,1,1.34-1.33A1.34,1.34,0,0,1,47.93,38.77Z"/></svg>