<svg xmlns="http://www.w3.org/2000/svg" viewBox="0 0 93 71"><defs><style>.a,.b,.c,.d{fill:none;stroke-miterlimit:10;}.a,.b{stroke:#f5333f;}.a{stroke-width:0.4px;}.c,.d{stroke:#191314;}.d{stroke-width:0.75px;}</style></defs><title>Logo and Icons</title><path class="a" d="M53.75,32.86H58.1c.26,0,.37,0,.37.33,0,2.15,0,4.29,0,6.44a1.12,1.12,0,0,1-1.26,1.25c-.63,0-.63,0-.63.64s0,1.09,0,1.63a1.07,1.07,0,1,1-2.13,0c0-.66,0-1.31,0-2,0-.26-.07-.32-.31-.31a5.47,5.47,0,0,1-.81,0c-.23,0-.3.06-.29.29,0,.68,0,1.36,0,2a1.1,1.1,0,0,1-.73,1.05,1.07,1.07,0,0,1-1.19-.38,1.2,1.2,0,0,1-.21-.73c0-.66,0-1.31,0-2,0-.22,0-.33-.28-.3a1.51,1.51,0,0,1-.3,0c-.9,0-1.31-.42-1.31-1.31q0-3.18,0-6.36c0-.27.07-.36.35-.35Z"/><path class="a" d="M48.43,38.33a1,1,0,0,1-1.19.89,1,1,0,0,1-.91-1.08c0-1.45,0-2.9,0-4.36a1,1,0,0,1,.91-1.08,1,1,0,0,1,1.19.9c0,.95,0,1.9,0,2.84C48.41,37.07,48.38,37.7,48.43,38.33Z"/><path class="a" d="M59,33.6a1,1,0,0,1,1.15-.9,1,1,0,0,1,1,1c0,1.47,0,3,0,4.43a1,1,0,0,1-1,1A1,1,0,0,1,59,38.33c.05-.95,0-1.9,0-2.85C59.06,34.85,59.09,34.23,59,33.6Z"/><path class="a" d="M58.42,31.51a4.32,4.32,0,0,0-2.11-2.9c-.2-.12-.21-.19-.09-.38s.35-.62.52-.93c.06-.11.2-.25,0-.35s-.22.08-.28.19c-.19.33-.38.66-.55,1-.08.16-.16.2-.34.13a4.86,4.86,0,0,0-3.67,0,.23.23,0,0,1-.34-.13c-.17-.34-.36-.67-.55-1-.06-.11-.11-.3-.28-.19s0,.24,0,.35c.16.29.31.59.49.86s.12.34-.12.5a4.05,4.05,0,0,0-2.1,3.54h0c0,.16.18.08.27.08H58.2c.09,0,.22.08.27-.08h0A2.68,2.68,0,0,0,58.42,31.51Zm-2.48-1.74a.35.35,0,0,1,.4.38.38.38,0,0,1-.38.41.39.39,0,0,1-.4-.38C55.57,29.92,55.69,29.77,55.94,29.77Zm-4.75.37a.36.36,0,0,1,.4-.37.37.37,0,0,1,.38.4c0,.25-.17.4-.41.39A.37.37,0,0,1,51.19,30.14Z"/><path class="b" d="M33.07,15.83v-3.2a5,5,0,0,1,5-5H67.54a5,5,0,0,1,5,5v46.9a5,5,0,0,1-5,5H38"/><rect class="c" x="22.07" y="15.83" width="22.87" height="48.65" rx="2.81"/><rect class="d" x="29.46" y="18.5" width="8.09" height="2.02" rx="1.01"/><rect class="d" x="48.74" y="10.84" width="8.09" height="2.02" rx="1.01"/></svg>